<svg width="299" height="82" viewBox="0 0 299 82" fill="none" xmlns="http://www.w3.org/2000/svg">
<g clip-path="url(#clip0_1_5)">
<mask id="mask0_1_5" style="mask-type:luminance" maskUnits="userSpaceOnUse" x="0" y="0" width="299" height="82">
<path d="M298.5 0H0.5V82H298.5V0Z" fill="white"/>
</mask>
<g mask="url(#mask0_1_5)">
<path d="M298.5 0H0.5V82H298.5V0Z" fill="white"/>
<path d="M245.763 33.6799L257.286 53.203L249.037 56.1126L245.763 33.6799Z" fill="#F95A2C"/>
<path d="M34.6073 39L26 47.7855L30.3927 52.0891L39 43.3037L34.6073 39Z" fill="#FFBD12"/>
<path d="M208.699 29.3976C210.19 29.3976 211.398 28.1893 211.398 26.6988C211.398 25.2083 210.19 24 208.699 24C207.209 24 206 25.2083 206 26.6988C206 28.1893 207.209 29.3976 208.699 29.3976Z" fill="#8094FF"/>
<path d="M258.775 18.963L276.828 17.2919L276.29 24.1306L258.775 18.963Z" fill="#00C6AE"/>
<path d="M68.0002 56.2077L74.6235 69.3378L79.0002 67.13L72.3769 54L68.0002 56.2077Z" fill="#FF9692"/>
<path d="M74.5 19L75.9593 23.4914H80.6819L76.8613 26.2672L78.3206 30.7586L74.5 27.9828L70.6794 30.7586L72.1387 26.2672L68.3181 23.4914H73.0407L74.5 19Z" fill="#00C6AE"/>
<path d="M206.148 68.7951C206.148 68.7951 205.272 63.5923 207.785 62.5553C209.897 61.6841 211.728 65.5368 213.463 64.14C215.22 62.7252 210.833 60.4838 212.262 58.7916C213.766 57.0106 218.594 58.7916 218.594 58.7916" stroke="#1947E6" stroke-width="2.15903"/>
<path d="M103.828 16.7373C106.794 17.0358 109.677 12.5238 109.344 15.832C109.011 19.1401 106.336 21.5799 103.37 21.2814C100.404 20.9828 98.2699 18.0591 98.6029 14.7509C98.9358 11.4428 100.862 16.4388 103.828 16.7373Z" fill="#1947E6"/>
<path fill-rule="evenodd" clip-rule="evenodd" d="M150.529 61.3929C163.632 63.3959 165.365 58.0631 166.817 49.7864C168.654 39.3203 161.831 20.9789 149.72 19.868C142.018 19.1615 139.973 27.7636 135.348 32.503C128.756 39.2587 124.045 42.3183 116.172 47.3012C110.604 50.8249 113.849 61.2685 119.774 64.0641C122.994 65.5831 126.917 63.8222 130.125 63.2171C136.859 61.947 143.649 60.3413 150.529 61.3929Z" fill="#FF89BB" stroke="#1947E6" stroke-width="2.31944" stroke-miterlimit="1.5" stroke-linecap="round" stroke-linejoin="round"/>
<path d="M164.236 46.8022C163.832 37.9515 159.906 24.8407 149.7 23.0816C143.953 22.4877 142.042 30.8323 141.79 35.1348C141.264 44.0853 146.648 57.1045 156.832 58.2592C162.872 58.9444 164.442 51.2977 164.236 46.8022Z" stroke="#1947E6" stroke-width="2.31944" stroke-miterlimit="1.5" stroke-linecap="round" stroke-linejoin="round"/>
<path d="M152.801 36.4448L152.456 35.3378C152.41 35.3521 152.365 35.3692 152.321 35.3891L152.801 36.4448ZM152.321 35.3891C150.503 36.2162 150.307 38.1691 150.441 39.6093C150.584 41.1411 151.142 42.7953 151.592 43.9667L153.757 43.1342C153.321 42.0008 152.863 40.5932 152.751 39.3939C152.63 38.1029 152.941 37.6554 153.282 37.5004L152.321 35.3891ZM151.592 43.9667C151.843 44.6194 152.376 45.4837 152.977 46.1462C153.279 46.4782 153.654 46.8229 154.079 47.0551C154.495 47.2814 155.151 47.4983 155.845 47.1983L154.924 45.0694C155.166 44.9648 155.307 45.0825 155.19 45.0187C155.083 44.9606 154.91 44.824 154.695 44.5874C154.264 44.1126 153.894 43.4898 153.757 43.1342L151.592 43.9667ZM155.845 47.1983C157.168 46.6263 157.584 45.2285 157.677 44.0899C157.775 42.8799 157.564 41.4869 157.193 40.2169C156.823 38.9475 156.262 37.6887 155.576 36.768C155.234 36.31 154.818 35.8753 154.321 35.5867C153.805 35.2865 153.151 35.1207 152.456 35.3378L153.147 37.5518C153.07 37.5757 153.049 37.5297 153.155 37.5918C153.282 37.6654 153.478 37.8353 153.716 38.154C154.188 38.7867 154.647 39.7693 154.967 40.866C155.286 41.9621 155.433 43.0599 155.365 43.9018C155.291 44.8151 155.014 45.0305 154.924 45.0694L155.845 47.1983Z" fill="#1947E6"/>
<path d="M132.932 62.68C128.457 60.2707 125.261 53.7072 123.941 49.1197C123.341 47.0312 123.003 44.7127 123.475 42.5615" stroke="#1947E6" stroke-width="2.31944" stroke-miterlimit="1.5" stroke-linecap="round" stroke-linejoin="round"/>
<path d="M117.165 54.3464C117.449 55.8946 118.031 57.4214 119.043 58.6397" stroke="#1947E6" stroke-width="2.31944" stroke-miterlimit="1.5" stroke-linecap="round" stroke-linejoin="round"/>
<path d="M120.453 52.4792C120.84 54.1325 121.581 55.63 122.737 56.88" stroke="#1947E6" stroke-width="2.31944" stroke-miterlimit="1.5" stroke-linecap="round" stroke-linejoin="round"/>
<path fill-rule="evenodd" clip-rule="evenodd" d="M136.262 62.0568C134.889 62.2666 133.243 62.6085 131.686 62.9124C132.328 64.1833 133.213 65.7578 134.185 66.8123C134.602 67.2644 135.045 67.7353 135.659 67.9017C135.904 67.9679 136.171 67.9724 136.423 67.9512C137.168 67.8885 139.039 67.6661 139.111 66.6451C139.157 65.9819 138.638 65.3098 138.265 64.8105C137.59 63.9086 136.955 62.9772 136.33 62.0405" fill="#FF89BB"/>
<path d="M136.262 62.0568C134.889 62.2666 133.243 62.6085 131.686 62.9124C132.328 64.1833 133.213 65.7578 134.185 66.8123C134.602 67.2644 135.045 67.7353 135.659 67.9017C135.904 67.9679 136.171 67.9724 136.423 67.9512C137.168 67.8885 139.039 67.6661 139.111 66.6451C139.157 65.9819 138.638 65.3098 138.265 64.8105C137.59 63.9086 136.955 62.9772 136.33 62.0405" stroke="#1947E6" stroke-width="2.31944" stroke-miterlimit="1.5" stroke-linecap="round" stroke-linejoin="round"/>
<path d="M168.586 59.2031C172.239 60.2188 175.924 61.1383 179.543 62.2837C178.431 60.2586 177.938 57.5479 177.249 55.3671C181.666 54.8795 186.178 54.4359 190.55 53.6806C187.809 51.1593 185.332 47.7954 183.103 44.8613C187.31 43.6922 191.448 42.2309 195.565 40.785C191.37 37.9146 187.188 34.8892 182.805 32.3243C185.693 28.3862 188.383 24.2875 191.426 20.4696C186.34 20.4248 181.253 20.1164 176.167 20.106C177.597 15.9014 179.44 11.7972 181.012 7.64453C175.363 9.40365 169.927 11.7459 164.216 13.3351C164.12 9.93359 164.116 6.5315 163.829 3.13892C160.957 5.95626 158.121 8.79131 155.079 11.428C154.295 9.5423 153.496 7.67167 152.628 5.82205C151.544 8.71824 150.742 11.7098 149.958 14.6988" stroke="#FFBD12" stroke-width="2.31944" stroke-miterlimit="1.5" stroke-linecap="round" stroke-linejoin="round"/>
<path d="M131.687 62.9143C132.329 64.1849 133.214 65.7584 134.186 66.8125C134.603 67.2646 135.045 67.7354 135.66 67.9019C135.904 67.9681 136.172 67.9725 136.423 67.9514C136.963 67.906 138.092 67.7769 138.702 67.3218C139.005 67.6401 139.341 67.9729 139.688 68.3175C141.255 69.8723 143.064 71.6669 143.246 73.451C143.381 74.7679 142.186 75.8826 141.083 76.3914C138.693 77.4943 136.263 77.2153 134.05 75.8366C130.155 73.4098 127.978 68.7688 126.353 64.6754C126.348 64.663 126.342 64.6494 126.336 64.6349C126.286 64.5087 126.207 64.3102 126.17 64.1781C127.801 63.707 129.873 63.2698 131.687 62.9143Z" fill="#FF89BB"/>
<path d="M152.754 36.4662C150.659 37.4821 151.794 41.2619 152.674 43.5498C153.036 44.4908 154.296 46.266 155.197 46.1809C155.2 46.1888 155.203 46.1966 155.206 46.2043C153.321 47.1832 151.812 48.121 150.365 49.0202C149.064 49.8284 147.814 50.6054 146.385 51.3531C145.03 49.4915 143.598 46.2232 143.301 45.2112C143.238 44.9993 143.177 44.794 143.117 44.5929C142.643 43.0007 142.249 41.6774 141.947 39.4655C143.325 39.0608 144.79 38.683 146.271 38.3013C148.478 37.7324 150.718 37.1547 152.754 36.4662Z" fill="#FF89BB"/>
<path d="M131.687 62.9143C132.329 64.1849 133.214 65.7584 134.186 66.8125C134.603 67.2646 135.045 67.7354 135.66 67.9019C135.904 67.9681 136.172 67.9725 136.423 67.9514C136.963 67.906 138.092 67.7769 138.702 67.3218C139.005 67.6401 139.341 67.9729 139.688 68.3175C141.255 69.8723 143.064 71.6669 143.246 73.451C143.381 74.7679 142.186 75.8826 141.083 76.3914C138.693 77.4943 136.263 77.2153 134.05 75.8366C130.155 73.4098 127.978 68.7688 126.353 64.6754C126.348 64.663 126.342 64.6494 126.336 64.6349C126.286 64.5087 126.207 64.3102 126.17 64.1781C127.801 63.707 129.873 63.2698 131.687 62.9143Z" stroke="#1947E6" stroke-width="2.31944" stroke-miterlimit="1.5" stroke-linecap="round" stroke-linejoin="round"/>
<path d="M152.754 36.4662C150.659 37.4821 151.794 41.2619 152.674 43.5498C153.036 44.4908 154.296 46.266 155.197 46.1809C155.2 46.1888 155.203 46.1966 155.206 46.2043C153.321 47.1832 151.812 48.121 150.365 49.0202C149.064 49.8284 147.814 50.6054 146.385 51.3531C145.03 49.4915 143.598 46.2232 143.301 45.2112C143.238 44.9993 143.177 44.794 143.117 44.5929C142.643 43.0007 142.249 41.6774 141.947 39.4655C143.325 39.0608 144.79 38.683 146.271 38.3013C148.478 37.7324 150.718 37.1547 152.754 36.4662Z" stroke="#1947E6" stroke-width="2.31944" stroke-miterlimit="1.5" stroke-linecap="round" stroke-linejoin="round"/>
</g>
</g>
<defs>
<clipPath id="clip0_1_5">
<rect width="299" height="82" fill="white"/>
</clipPath>
</defs>
</svg>
